<svg xmlns="http://www.w3.org/2000/svg" xmlns:xlink="http://www.w3.org/1999/xlink">
  <symbol id="back" viewBox="0 0 8 13">
    <g>
      <path fill-rule="evenodd" clip-rule="evenodd" d="M7.19622 0.751111C7.56619 1.12108 7.56619 1.72092 7.19622 2.09089L2.81347 6.47363L7.19622 10.8564C7.56619 11.2263 7.56619 11.8262 7.19622 12.1962C6.82625 12.5661 6.2264 12.5661 5.85643 12.1962L0.803802 7.14352C0.433832 6.77355 0.433832 6.17371 0.803802 5.80374L5.85643 0.751111C6.22641 0.38114 6.82625 0.38114 7.19622 0.751111Z" />
    </g>
  </symbol>
  <symbol id="plus" viewBox="0 0 14 14">
    <g>
      <path d="M6 1C6 0.447716 6.44772 0 7 0C7.55228 0 8 0.447715 8 1V13C8 13.5523 7.55228 14 7 14C6.44772 14 6 13.5523 6 13V1Z" />
      <path d="M0 7C0 6.44772 0.447715 6 1 6H13C13.5523 6 14 6.44772 14 7C14 7.55228 13.5523 8 13 8H1C0.447716 8 0 7.55228 0 7Z" />
    </g>
  </symbol>
  <symbol id="list" viewBox="0 0 14 12">
    <g>
      <path d="M0 6C0 5.44772 0.447715 5 1 5H13C13.5523 5 14 5.44772 14 6C14 6.55228 13.5523 7 13 7H1C0.447716 7 0 6.55228 0 6Z" />
      <path d="M0 1C0 0.447715 0.447715 0 1 0H13C13.5523 0 14 0.447715 14 1C14 1.55228 13.5523 2 13 2H1C0.447716 2 0 1.55228 0 1Z" />
      <path d="M0 11C0 10.4477 0.447715 10 1 10H13C13.5523 10 14 10.4477 14 11C14 11.5523 13.5523 12 13 12H1C0.447716 12 0 11.5523 0 11Z" />
    </g>
  </symbol>
</svg>